<svg width="215" height="96" viewBox="0 0 215 96" fill="none" xmlns="http://www.w3.org/2000/svg">
<path d="M62.672 68.64C61.008 68.64 59.408 68.2347 57.872 67.424C56.3787 66.5707 55.1627 65.2267 54.224 63.392C53.2853 61.5147 52.816 59.04 52.816 55.968C52.816 53.7067 53.0507 51.4453 53.52 49.184C54.032 46.9227 54.736 44.7893 55.632 42.784C56.5707 40.7787 57.7013 39.008 59.024 37.472C60.3467 35.8933 61.84 34.656 63.504 33.76C65.2107 32.864 67.0453 32.416 69.008 32.416C70.5013 32.416 71.7813 32.6293 72.848 33.056C73.9573 33.4827 74.896 34.08 75.664 34.848C76.4747 35.616 77.136 36.512 77.648 37.536H77.904L79.696 33.056H86.928L79.504 68H72.464L72.912 63.456H72.656C71.8453 64.48 70.9493 65.376 69.968 66.144C68.9867 66.912 67.8987 67.5307 66.704 68C65.5093 68.4267 64.1653 68.64 62.672 68.64ZM66.384 61.024C67.664 61.024 68.8587 60.512 69.968 59.488C71.0773 58.464 72.016 57.1413 72.784 55.52C73.5947 53.8987 74.1707 52.192 74.512 50.4C74.6827 49.5467 74.7893 48.7147 74.832 47.904C74.9173 47.0507 74.96 46.1333 74.96 45.152C74.96 43.6587 74.576 42.4427 73.808 41.504C73.04 40.5227 71.9733 40.032 70.608 40.032C69.6693 40.032 68.7947 40.3307 67.984 40.928C67.1733 41.5253 66.4053 42.336 65.68 43.36C64.9973 44.384 64.4 45.5573 63.888 46.88C63.4187 48.2027 63.0347 49.6107 62.736 51.104C62.48 52.5547 62.352 54.0267 62.352 55.52C62.352 57.3547 62.6933 58.7413 63.376 59.68C64.1013 60.576 65.104 61.024 66.384 61.024ZM84.992 83.36C83.8827 83.36 82.9653 83.296 82.24 83.168C81.5147 83.0827 80.896 82.9547 80.384 82.784V75.296C80.9387 75.3813 81.5147 75.4667 82.112 75.552C82.6667 75.6373 83.3067 75.68 84.032 75.68C86.0373 75.68 87.68 75.104 88.96 73.952C90.24 72.8 91.3493 71.328 92.288 69.536L93.12 68L88 33.056H97.216L98.944 49.248C99.072 50.1867 99.1573 51.2107 99.2 52.32C99.2427 53.4293 99.264 54.5173 99.264 55.584C99.3067 56.608 99.328 57.5467 99.328 58.4H99.584C99.8827 57.6747 100.181 56.8853 100.48 56.032C100.779 55.1787 101.12 54.24 101.504 53.216C101.931 52.1493 102.421 51.04 102.976 49.888L111.104 33.056H121.344L100.096 72.992C98.8587 75.3387 97.4507 77.28 95.872 78.816C94.336 80.352 92.6507 81.4827 90.816 82.208C89.024 82.976 87.0827 83.36 84.992 83.36ZM125.987 68.64C123.769 68.64 121.827 68.4693 120.163 68.128C118.499 67.8293 116.942 67.3173 115.491 66.592V58.848C117.07 59.744 118.691 60.448 120.355 60.96C122.019 61.4293 123.726 61.664 125.475 61.664C126.457 61.664 127.374 61.536 128.227 61.28C129.123 60.9813 129.827 60.5547 130.339 60C130.894 59.4453 131.171 58.7413 131.171 57.888C131.171 57.2907 131.022 56.7787 130.723 56.352C130.467 55.8827 129.955 55.3707 129.187 54.816C128.462 54.2613 127.374 53.5787 125.923 52.768C124.473 51.9573 123.235 51.1253 122.211 50.272C121.23 49.4187 120.462 48.4587 119.907 47.392C119.395 46.2827 119.139 45.0027 119.139 43.552C119.139 41.12 119.673 39.0933 120.739 37.472C121.806 35.808 123.321 34.5493 125.283 33.696C127.289 32.8427 129.678 32.416 132.451 32.416C134.457 32.416 136.398 32.6507 138.275 33.12C140.153 33.5467 141.987 34.2933 143.779 35.36L140.708 42.08C139.47 41.3547 138.147 40.736 136.74 40.224C135.374 39.712 134.009 39.456 132.643 39.456C131.619 39.456 130.702 39.712 129.891 40.224C129.081 40.6933 128.675 41.4187 128.675 42.4C128.675 42.9547 128.825 43.4667 129.123 43.936C129.422 44.3627 129.913 44.8107 130.595 45.28C131.278 45.7067 132.217 46.24 133.411 46.88C134.819 47.6053 136.078 48.416 137.188 49.312C138.297 50.1653 139.15 51.1893 139.747 52.384C140.388 53.536 140.708 54.9013 140.708 56.48C140.708 59.1253 140.089 61.3653 138.851 63.2C137.657 64.992 135.95 66.3573 133.731 67.296C131.555 68.192 128.974 68.64 125.987 68.64ZM158.03 68.64C155.427 68.64 153.102 68.1067 151.054 67.04C149.048 65.9307 147.47 64.3733 146.318 62.368C145.208 60.3627 144.654 57.9733 144.654 55.2C144.654 52.7253 144.888 50.3573 145.358 48.096C145.87 45.8347 146.616 43.7653 147.598 41.888C148.579 39.968 149.816 38.304 151.31 36.896C152.803 35.488 154.531 34.4 156.494 33.632C158.499 32.8213 160.739 32.416 163.214 32.416C165.944 32.416 168.291 32.9707 170.254 34.08C172.216 35.1467 173.731 36.7253 174.798 38.816C175.907 40.864 176.462 43.3387 176.462 46.24C176.462 48.5867 176.227 50.8693 175.758 53.088C175.288 55.3067 174.563 57.3547 173.582 59.232C172.643 61.1093 171.448 62.752 169.998 64.16C168.547 65.568 166.819 66.6773 164.814 67.488C162.808 68.256 160.547 68.64 158.03 68.64ZM158.798 60.96C159.822 60.96 160.76 60.704 161.614 60.192C162.467 59.6373 163.235 58.8907 163.918 57.952C164.6 57.0133 165.155 55.9253 165.582 54.688C166.051 53.4507 166.392 52.1067 166.606 50.656C166.862 49.2053 166.99 47.7333 166.99 46.24C166.99 45.0453 166.84 44 166.542 43.104C166.286 42.1653 165.816 41.44 165.134 40.928C164.494 40.3733 163.619 40.096 162.51 40.096C161.358 40.096 160.334 40.416 159.438 41.056C158.542 41.696 157.752 42.5493 157.07 43.616C156.43 44.64 155.875 45.8133 155.406 47.136C154.979 48.4587 154.659 49.824 154.446 51.232C154.232 52.5973 154.126 53.92 154.126 55.2C154.126 57.0773 154.51 58.5067 155.278 59.488C156.046 60.4693 157.219 60.96 158.798 60.96ZM177.227 68L184.651 33.056H191.819L191.179 39.52H191.435C192.331 38.112 193.312 36.8747 194.379 35.808C195.488 34.7413 196.704 33.9093 198.027 33.312C199.35 32.7147 200.822 32.416 202.443 32.416C204.448 32.416 206.112 32.8427 207.435 33.696C208.8 34.5067 209.803 35.6587 210.443 37.152C211.126 38.6453 211.467 40.416 211.467 42.464C211.467 43.232 211.403 44.1067 211.275 45.088C211.147 46.0267 210.976 47.0293 210.763 48.096L206.603 68H197.195L201.483 47.584C201.654 46.8587 201.782 46.1973 201.867 45.6C201.952 44.96 201.995 44.384 201.995 43.872C201.995 42.5493 201.696 41.5893 201.099 40.992C200.544 40.352 199.712 40.032 198.603 40.032C197.195 40.032 195.915 40.6507 194.763 41.888C193.611 43.0827 192.608 44.704 191.755 46.752C190.944 48.8 190.262 51.0613 189.707 53.536L186.635 68H177.227Z" fill="white"/>
<path d="M0.926668 83.5161L3.08719 80.0039L6.00556 81.0375C7.90589 81.7105 9.41834 81.6097 10.5429 80.7349C11.6967 79.9214 12.8604 78.5768 14.0339 76.701L20.6074 66.1205C21.7489 64.3351 23.2454 63.0574 25.0967 62.2873C26.964 61.4719 29.3979 61.2137 32.3983 61.5125L32.8423 60.9059C30.9693 59.5806 29.734 58.2519 29.1364 56.92C28.5548 55.5428 28.5204 54.1303 29.0332 52.6824C29.1293 52.4109 29.2255 52.1395 29.3216 51.868C29.479 51.5673 29.6591 51.2746 29.8617 50.9899L36.4833 40.2737C36.8273 39.7336 37.1101 39.2227 37.3317 38.741C37.5692 38.2141 37.7761 37.7018 37.9524 37.2041C38.321 36.1634 38.3299 35.2755 37.9793 34.5402C37.6899 33.7757 36.8891 33.1611 35.577 32.6964L32.6586 31.6628L34.9351 28.0389L42.1971 30.6109C45.6358 31.8288 47.9664 33.4435 49.189 35.4551C50.4276 37.4214 50.6302 39.581 49.7969 41.9338C49.6687 42.2957 49.4232 42.8453 49.0603 43.5824C48.7426 44.3356 48.0903 45.5303 47.1034 47.1667L42.1503 55.1131C42.0089 55.3685 41.8595 55.6466 41.702 55.9473C41.6059 56.2188 41.5178 56.4676 41.4376 56.6938C40.7966 58.5037 41.0134 59.9044 42.088 60.8961C43.2079 61.9038 44.7099 62.7667 46.5942 63.485L43.9176 67.8074C41.6845 67.0675 39.6028 66.763 37.6723 66.894C35.7418 67.025 34.095 68.224 32.7319 70.491L26.1542 81.2992C24.1351 84.5559 21.7219 86.5529 18.9148 87.29C16.1077 88.0271 12.5323 87.6265 8.18865 86.0881L0.926668 83.5161Z" fill="white"/>
<circle cx="49.8289" cy="22.829" r="7" transform="rotate(-7.26421 49.8289 22.829)" fill="white"/>
</svg>
