<svg width="93" height="93" viewBox="0 0 93 93" fill="none" xmlns="http://www.w3.org/2000/svg">
<path d="M2.00755 17.9612C2.14191 8.57327 9.86121 1.07181 19.2491 1.20617L92.2416 2.25083L91.197 75.2434C91.0626 84.6312 83.3433 92.1327 73.9554 91.9983L17.9612 91.197C8.57327 91.0626 1.07181 83.3433 1.20617 73.9554L2.00755 17.9612Z" fill="#22D3EE"/>
<path d="M14.669 72.7289L17.373 69.3887L20.1855 70.8074C21.9354 71.6901 23.3543 71.7786 24.442 71.0728C25.5504 70.4298 26.7753 69.2967 28.1167 67.6735L35.7254 58.3401C36.9831 56.7793 38.5207 55.7516 40.3382 55.2571C42.2183 54.742 44.6181 54.8027 47.5377 55.439L48.072 54.8461C46.4706 53.2544 45.4636 51.7795 45.051 50.4215C44.68 49.0845 44.8203 47.7701 45.4718 46.4785C45.5979 46.2285 45.724 45.9785 45.8501 45.7285C46.0389 45.4579 46.2277 45.1872 46.4165 44.9166L54.1198 35.3956C54.518 34.917 54.8641 34.4382 55.1579 33.9593C55.4518 33.4803 55.7038 33.0325 55.914 32.6158C56.3764 31.6992 56.5148 30.9066 56.3293 30.2381C56.1649 29.5279 55.4785 28.8681 54.2702 28.2586L51.3952 26.8084L54.1933 23.4373L61.5057 27.1258C64.839 28.8072 67.0132 30.714 68.0283 32.8463C69.0434 34.9787 68.994 37.149 67.8801 39.3573C67.712 39.6906 67.3866 40.2321 66.9039 40.9817C66.4629 41.7523 65.5612 42.9701 64.1988 44.6349L59.0109 51.0341C58.8431 51.2631 58.6754 51.4921 58.5076 51.7211C58.3815 51.9711 58.2659 52.2002 58.1608 52.4086C57.3412 54.0336 57.3991 55.3694 58.3345 56.4162C59.3117 57.4841 60.6542 58.501 62.3621 59.467L58.9978 63.6501C56.9351 62.6619 54.9753 62.0915 53.1184 61.9389C51.3242 61.7656 49.641 62.6675 48.0687 64.6446L40.4279 74.1971C38.0172 77.2147 35.3401 78.8436 32.3966 79.0837C29.4531 79.3237 25.9605 78.4245 21.9189 76.3858L14.669 72.7289Z" fill="white"/>
<circle cx="72" cy="19" r="7" fill="white"/>
</svg>
